<svg xmlns="http://www.w3.org/2000/svg" xmlns:xlink="http://www.w3.org/1999/xlink" width="480" zoomAndPan="magnify" viewBox="0 0 360 299.999988" height="400" preserveAspectRatio="xMidYMid meet" version="1.0"><defs><clipPath id="id1"><path d="M 20.25 13.851562 L 339.75 13.851562 L 339.75 286.101562 L 20.25 286.101562 Z M 20.25 13.851562 " clip-rule="nonzero"/></clipPath></defs><g clip-path="url(#id1)"><path fill="#ffffff" d="M 229.097656 18.65625 L 229.554688 18.519531 C 240.316406 15.132812 250.613281 13.667969 260.273438 13.851562 C 270.574219 14.078125 280.144531 16.136719 288.839844 19.707031 C 296.027344 22.683594 302.621094 26.710938 308.527344 31.5625 C 314.523438 36.550781 319.789062 42.410156 324.183594 48.957031 C 328.578125 55.457031 332.058594 62.640625 334.667969 70.285156 C 337.230469 77.839844 338.832031 85.847656 339.472656 94.132812 C 341.03125 114.777344 336.269531 137.160156 323.679688 158.351562 C 312.554688 177.027344 295.339844 194.738281 270.941406 209.523438 C 267.828125 211.398438 264.851562 213.277344 262.015625 215.152344 C 259.175781 217.03125 256.292969 219 253.453125 221.011719 L 253.085938 221.242188 C 233.90625 234.835938 217.425781 249.574219 205.382812 261.382812 C 193.4375 273.054688 185.792969 281.886719 184.050781 283.949219 C 183.640625 284.542969 183.089844 285.09375 182.449219 285.457031 C 181.808594 285.824219 181.03125 286.054688 180.207031 286.101562 L 179.75 286.101562 C 178.925781 286.054688 178.144531 285.824219 177.460938 285.414062 C 176.816406 285 176.269531 284.453125 175.855469 283.8125 C 173.339844 280.882812 161.207031 266.921875 142.804688 250.214844 C 132.550781 240.921875 120.417969 230.808594 107.003906 221.285156 L 106.5 220.964844 C 103.664062 218.953125 100.777344 217.03125 97.941406 215.152344 C 95.054688 213.230469 92.082031 211.355469 89.058594 209.523438 C 64.660156 194.738281 47.445312 177.027344 36.320312 158.351562 C 23.730469 137.160156 19.015625 114.777344 20.527344 94.132812 C 21.167969 85.847656 22.769531 77.839844 25.332031 70.285156 C 27.941406 62.640625 31.46875 55.457031 35.816406 48.957031 C 40.210938 42.410156 45.476562 36.550781 51.472656 31.5625 C 57.378906 26.710938 63.972656 22.683594 71.160156 19.707031 C 79.855469 16.136719 89.425781 14.078125 99.726562 13.851562 C 109.429688 13.667969 119.730469 15.132812 130.488281 18.519531 C 130.625 18.5625 130.808594 18.609375 130.992188 18.703125 C 139.050781 21.265625 147.429688 24.972656 155.941406 29.824219 C 163.816406 34.355469 171.828125 39.894531 180.023438 46.53125 C 188.171875 39.894531 196.183594 34.355469 204.058594 29.824219 C 212.617188 24.925781 220.996094 21.265625 229.097656 18.65625 Z M 90.15625 39.757812 C 100.089844 42.824219 116.023438 48.589844 130.808594 57.882812 C 140.742188 64.105469 150.175781 71.886719 156.902344 81.5 C 159.148438 77.289062 161.574219 72.894531 164.273438 68.410156 C 167.160156 63.648438 170.273438 58.75 173.707031 53.761719 C 166.152344 47.582031 158.691406 42.503906 151.457031 38.335938 C 143.628906 33.804688 136.027344 30.417969 128.65625 28.039062 C 120.464844 28.769531 113 30.28125 106.316406 32.433594 C 100.367188 34.402344 95.011719 36.828125 90.15625 39.757812 Z M 151.960938 91.617188 C 144.316406 77.699219 129.847656 67.492188 115.792969 60.308594 C 102.472656 53.488281 89.472656 49.414062 82.785156 47.582031 C 81.503906 53.394531 80.5 59.070312 79.765625 64.519531 C 78.941406 70.378906 78.4375 76.007812 78.164062 81.410156 C 91.347656 91.9375 102.882812 102.738281 113 113.632812 C 122.9375 124.296875 131.496094 135.007812 138.867188 145.625 C 138.777344 141.507812 139.003906 137.203125 139.554688 132.671875 C 140.332031 126.449219 141.707031 119.855469 143.855469 112.855469 C 144.863281 109.421875 146.101562 105.851562 147.566406 102.097656 C 148.894531 98.664062 150.359375 95.140625 151.960938 91.617188 Z M 277.210938 47.582031 C 268.699219 49.917969 250.066406 55.824219 233.492188 66.394531 C 223.238281 72.941406 213.761719 81.269531 208.039062 91.617188 C 209.734375 95.324219 211.246094 98.9375 212.570312 102.464844 C 214.035156 106.261719 215.320312 109.96875 216.371094 113.585938 C 218.386719 120.453125 219.757812 126.90625 220.492188 132.992188 C 220.996094 137.386719 221.222656 141.597656 221.132812 145.582031 C 228.503906 134.960938 237.0625 124.25 247.042969 113.585938 C 257.160156 102.691406 268.699219 91.9375 281.835938 81.410156 C 281.5625 76.007812 281.058594 70.378906 280.234375 64.519531 C 279.5 59.027344 278.496094 53.394531 277.210938 47.582031 Z M 203.050781 81.5 C 209.824219 71.886719 219.257812 64.105469 229.191406 57.882812 L 229.28125 57.835938 C 244.023438 48.589844 259.90625 42.777344 269.84375 39.757812 C 265.035156 36.828125 259.632812 34.402344 253.683594 32.433594 C 247 30.28125 239.535156 28.769531 231.339844 28.039062 C 223.972656 30.417969 216.371094 33.804688 208.542969 38.335938 C 201.308594 42.503906 193.894531 47.582031 186.292969 53.761719 C 189.726562 58.75 192.839844 63.648438 195.726562 68.410156 C 198.425781 72.894531 200.851562 77.289062 203.050781 81.5 Z M 174.804688 268.292969 C 174.300781 262.160156 173.386719 254.011719 171.417969 244.355469 C 169.082031 232.636719 165.328125 218.679688 159.285156 203.4375 C 156.859375 203.34375 154.386719 203.160156 151.960938 202.839844 C 149.167969 202.476562 146.375 201.972656 143.675781 201.285156 C 133.96875 198.996094 124.261719 194.832031 115.246094 188.789062 C 106.730469 183.160156 98.808594 175.882812 91.988281 166.910156 C 84.710938 157.34375 78.667969 145.855469 74.5 132.488281 C 70.703125 120.175781 68.503906 106.308594 68.414062 90.792969 C 68.367188 84.613281 68.640625 78.160156 69.28125 71.476562 C 69.738281 66.714844 70.378906 61.820312 71.25 56.828125 C 68.640625 60.308594 66.398438 64.015625 64.519531 67.90625 C 61.773438 73.671875 59.761719 79.851562 58.433594 86.351562 C 56.691406 95.09375 56.28125 104.339844 57.058594 113.859375 C 57.882812 123.519531 59.941406 133.359375 63.238281 143.199219 C 67.632812 156.292969 74.132812 169.246094 82.648438 181.417969 C 90.796875 193.046875 100.777344 203.9375 112.453125 213.460938 C 127.742188 224.261719 141.339844 235.796875 152.464844 246.09375 C 161.847656 254.792969 169.449219 262.574219 174.804688 268.292969 Z M 155.117188 193.550781 C 148.160156 178.03125 138.867188 161.464844 126.371094 144.574219 C 113.78125 127.59375 97.941406 110.335938 78.027344 93.675781 C 78.347656 106.949219 80.359375 118.851562 83.609375 129.46875 C 87.410156 141.78125 92.949219 152.308594 99.632812 161.097656 C 105.769531 169.152344 112.863281 175.699219 120.464844 180.777344 C 128.566406 186.179688 137.21875 189.886719 145.871094 191.949219 C 147.839844 192.40625 149.761719 192.816406 151.730469 193.089844 C 152.828125 193.273438 153.972656 193.410156 155.117188 193.550781 Z M 166.335938 195.472656 C 169.996094 204.261719 172.972656 212.683594 175.308594 220.554688 C 177.230469 226.960938 178.742188 233.003906 179.976562 238.632812 C 181.214844 233.003906 182.722656 226.960938 184.648438 220.601562 C 187.027344 212.726562 189.957031 204.304688 193.621094 195.472656 C 192.382812 196.203125 191.101562 196.84375 189.820312 197.484375 C 187.074219 198.8125 184.1875 199.910156 181.167969 200.78125 C 180.527344 200.964844 179.886719 201.011719 179.289062 200.917969 C 178.695312 200.871094 178.101562 200.691406 177.597656 200.414062 C 174.851562 199.546875 172.195312 198.492188 169.675781 197.257812 C 168.53125 196.707031 167.433594 196.113281 166.335938 195.472656 Z M 291.496094 82.644531 C 291.542969 82.917969 291.542969 83.148438 291.542969 83.421875 C 291.585938 83.695312 291.542969 83.972656 291.542969 84.199219 C 291.542969 85.300781 291.585938 86.351562 291.585938 87.449219 C 291.585938 88.59375 291.585938 89.691406 291.585938 90.835938 C 291.496094 106.355469 289.253906 120.222656 285.453125 132.488281 C 281.332031 145.902344 275.289062 157.34375 267.964844 166.910156 C 261.144531 175.882812 253.222656 183.160156 244.753906 188.789062 C 235.738281 194.832031 226.03125 198.996094 216.324219 201.285156 C 213.578125 201.972656 210.832031 202.476562 208.039062 202.839844 L 207.996094 202.839844 C 205.566406 203.160156 203.140625 203.34375 200.714844 203.4375 C 195.726562 215.929688 192.292969 227.558594 189.957031 237.808594 C 187.074219 250.351562 185.746094 260.832031 185.195312 268.339844 C 191.742188 261.292969 201.722656 251.128906 214.175781 240.054688 C 223.878906 231.449219 235.140625 222.25 247.546875 213.460938 C 259.222656 203.9375 269.203125 193.046875 277.351562 181.417969 C 285.863281 169.289062 292.367188 156.292969 296.761719 143.199219 C 300.058594 133.359375 302.117188 123.519531 302.941406 113.859375 C 303.71875 104.339844 303.308594 95.09375 301.566406 86.351562 C 300.238281 79.851562 298.226562 73.671875 295.480469 67.90625 C 293.601562 64.015625 291.359375 60.308594 288.796875 56.828125 C 289.390625 60.398438 289.847656 63.878906 290.261719 67.3125 C 290.902344 72.574219 291.265625 77.65625 291.496094 82.644531 Z M 281.972656 93.675781 C 262.058594 110.335938 246.21875 127.59375 233.628906 144.574219 C 221.132812 161.464844 211.792969 178.03125 204.882812 193.550781 C 206.027344 193.410156 207.125 193.273438 208.269531 193.089844 C 210.191406 192.816406 212.160156 192.40625 214.128906 191.949219 C 222.78125 189.886719 231.433594 186.179688 239.492188 180.777344 C 247.136719 175.699219 254.230469 169.152344 260.367188 161.097656 C 267.050781 152.355469 272.589844 141.828125 276.390625 129.46875 C 279.640625 118.894531 281.652344 106.949219 281.972656 93.675781 Z M 180.023438 191.078125 C 182.175781 190.390625 184.28125 189.519531 186.292969 188.558594 C 188.402344 187.507812 190.414062 186.316406 192.335938 184.988281 C 196.503906 182.0625 200.164062 178.445312 203.140625 174.097656 C 205.980469 169.929688 208.175781 165.125 209.640625 159.632812 C 211.199219 153.726562 211.839844 147.046875 211.425781 139.585938 C 211.0625 132.488281 209.6875 124.753906 207.171875 116.285156 C 204.699219 107.910156 201.082031 98.847656 196.230469 89.144531 C 191.878906 80.449219 186.476562 71.246094 180.023438 61.496094 C 173.613281 71.109375 168.304688 80.171875 163.953125 88.777344 C 159.148438 98.34375 155.53125 107.316406 153.058594 115.644531 C 150.449219 124.207031 149.03125 132.03125 148.574219 139.171875 C 148.113281 146.726562 148.753906 153.453125 150.3125 159.449219 C 151.730469 164.941406 153.972656 169.792969 156.8125 174.003906 C 159.789062 178.398438 163.449219 182.0625 167.664062 184.988281 C 169.585938 186.316406 171.597656 187.507812 173.707031 188.558594 C 175.71875 189.519531 177.824219 190.390625 180.023438 191.078125 Z M 76.378906 189.109375 C 72.53125 183.84375 69.097656 178.398438 65.984375 172.90625 C 61.132812 164.210938 57.152344 155.238281 54.175781 146.222656 C 50.605469 135.601562 48.359375 124.9375 47.492188 114.5 C 46.621094 104.15625 47.125 94.042969 49 84.476562 C 51.015625 74.589844 54.496094 65.296875 59.578125 56.921875 C 64.476562 48.957031 70.839844 41.816406 78.710938 35.910156 C 83.199219 32.570312 88.144531 29.59375 93.636719 27.125 C 96.566406 25.75 99.679688 24.515625 102.929688 23.460938 C 99.269531 23.371094 95.695312 23.597656 92.261719 24.011719 C 86.082031 24.789062 80.222656 26.34375 74.777344 28.589844 C 68.503906 31.195312 62.734375 34.675781 57.5625 38.976562 C 52.296875 43.371094 47.628906 48.542969 43.78125 54.3125 C 39.890625 60.078125 36.734375 66.488281 34.398438 73.351562 C 32.109375 80.128906 30.644531 87.359375 30.09375 94.820312 C 28.8125 112.394531 32.519531 131.390625 42.410156 149.609375 C 49.964844 163.523438 61.132812 177.027344 76.378906 189.109375 Z M 257.070312 23.460938 C 260.320312 24.515625 263.433594 25.75 266.363281 27.125 C 271.855469 29.59375 276.800781 32.570312 281.289062 35.910156 C 289.160156 41.816406 295.523438 48.957031 300.421875 56.921875 C 305.503906 65.296875 308.984375 74.589844 311 84.476562 C 312.875 94.042969 313.378906 104.15625 312.507812 114.5 C 311.640625 124.9375 309.394531 135.601562 305.824219 146.222656 C 302.847656 155.238281 298.867188 164.210938 294.015625 172.90625 C 290.902344 178.398438 287.46875 183.84375 283.621094 189.109375 C 298.867188 176.980469 310.035156 163.523438 317.589844 149.609375 C 327.480469 131.390625 331.1875 112.394531 329.90625 94.820312 C 329.355469 87.359375 327.890625 80.128906 325.601562 73.351562 C 323.265625 66.488281 320.109375 60.078125 316.21875 54.3125 C 312.371094 48.542969 307.703125 43.371094 302.4375 38.976562 C 297.265625 34.675781 291.496094 31.195312 285.222656 28.589844 C 279.777344 26.34375 273.960938 24.789062 267.738281 24.011719 C 264.304688 23.597656 260.730469 23.371094 257.070312 23.460938 Z M 257.070312 23.460938 " fill-opacity="1" fill-rule="evenodd"/></g></svg>